<svg id="visual" viewBox="0 0 900 600" width="900" height="600" xmlns="http://www.w3.org/2000/svg" xmlns:xlink="http://www.w3.org/1999/xlink" version="1.1"><rect x="0" y="0" width="900" height="600" fill="#212121"></rect><defs><linearGradient id="grad1_0" x1="33.3%" y1="0%" x2="100%" y2="100%"><stop offset="20%" stop-color="#212121" stop-opacity="1"></stop><stop offset="80%" stop-color="#212121" stop-opacity="1"></stop></linearGradient></defs><defs><linearGradient id="grad2_0" x1="0%" y1="0%" x2="66.7%" y2="100%"><stop offset="20%" stop-color="#212121" stop-opacity="1"></stop><stop offset="80%" stop-color="#212121" stop-opacity="1"></stop></linearGradient></defs><g transform="translate(900, 0)"><path d="M0 486.7C-63.1 475 -126.1 463.3 -181.4 437.9C-236.7 412.6 -284.1 373.6 -330.9 330.9C-377.7 288.3 -423.8 242 -449.7 186.3C-475.6 130.5 -481.2 65.3 -486.7 0L0 0Z" fill="#ffd740"></path></g><g transform="translate(0, 600)"><path d="M0 -486.7C42.9 -433.6 85.8 -380.4 151.5 -365.9C217.3 -351.3 306 -375.5 344.2 -344.2C382.3 -312.9 369.9 -226.2 385.3 -159.6C400.6 -93 443.7 -46.5 486.7 0L0 0Z" fill="#ffd740"></path></g></svg>