<svg id="visual" viewBox="0 0 900 600" width="900" height="600" xmlns="http://www.w3.org/2000/svg" xmlns:xlink="http://www.w3.org/1999/xlink" version="1.1"><rect x="0" y="0" width="900" height="600" fill="#001220"></rect><defs><linearGradient id="grad1_0" x1="33.3%" y1="0%" x2="100%" y2="100%"><stop offset="20%" stop-color="#fbae3c" stop-opacity="1"></stop><stop offset="80%" stop-color="#fbae3c" stop-opacity="1"></stop></linearGradient></defs><defs><linearGradient id="grad1_1" x1="33.3%" y1="0%" x2="100%" y2="100%"><stop offset="20%" stop-color="#fbae3c" stop-opacity="1"></stop><stop offset="80%" stop-color="#f48350" stop-opacity="1"></stop></linearGradient></defs><defs><linearGradient id="grad1_2" x1="33.3%" y1="0%" x2="100%" y2="100%"><stop offset="20%" stop-color="#d96162" stop-opacity="1"></stop><stop offset="80%" stop-color="#f48350" stop-opacity="1"></stop></linearGradient></defs><defs><linearGradient id="grad1_3" x1="33.3%" y1="0%" x2="100%" y2="100%"><stop offset="20%" stop-color="#d96162" stop-opacity="1"></stop><stop offset="80%" stop-color="#af4b6d" stop-opacity="1"></stop></linearGradient></defs><defs><linearGradient id="grad1_4" x1="33.3%" y1="0%" x2="100%" y2="100%"><stop offset="20%" stop-color="#7c3e6b" stop-opacity="1"></stop><stop offset="80%" stop-color="#af4b6d" stop-opacity="1"></stop></linearGradient></defs><defs><linearGradient id="grad1_5" x1="33.3%" y1="0%" x2="100%" y2="100%"><stop offset="20%" stop-color="#7c3e6b" stop-opacity="1"></stop><stop offset="80%" stop-color="#49335c" stop-opacity="1"></stop></linearGradient></defs><defs><linearGradient id="grad1_6" x1="33.3%" y1="0%" x2="100%" y2="100%"><stop offset="20%" stop-color="#1d2540" stop-opacity="1"></stop><stop offset="80%" stop-color="#49335c" stop-opacity="1"></stop></linearGradient></defs><defs><linearGradient id="grad1_7" x1="33.3%" y1="0%" x2="100%" y2="100%"><stop offset="20%" stop-color="#1d2540" stop-opacity="1"></stop><stop offset="80%" stop-color="#001220" stop-opacity="1"></stop></linearGradient></defs><defs><linearGradient id="grad2_0" x1="0%" y1="0%" x2="66.7%" y2="100%"><stop offset="20%" stop-color="#fbae3c" stop-opacity="1"></stop><stop offset="80%" stop-color="#fbae3c" stop-opacity="1"></stop></linearGradient></defs><defs><linearGradient id="grad2_1" x1="0%" y1="0%" x2="66.7%" y2="100%"><stop offset="20%" stop-color="#f48350" stop-opacity="1"></stop><stop offset="80%" stop-color="#fbae3c" stop-opacity="1"></stop></linearGradient></defs><defs><linearGradient id="grad2_2" x1="0%" y1="0%" x2="66.7%" y2="100%"><stop offset="20%" stop-color="#f48350" stop-opacity="1"></stop><stop offset="80%" stop-color="#d96162" stop-opacity="1"></stop></linearGradient></defs><defs><linearGradient id="grad2_3" x1="0%" y1="0%" x2="66.7%" y2="100%"><stop offset="20%" stop-color="#af4b6d" stop-opacity="1"></stop><stop offset="80%" stop-color="#d96162" stop-opacity="1"></stop></linearGradient></defs><defs><linearGradient id="grad2_4" x1="0%" y1="0%" x2="66.7%" y2="100%"><stop offset="20%" stop-color="#af4b6d" stop-opacity="1"></stop><stop offset="80%" stop-color="#7c3e6b" stop-opacity="1"></stop></linearGradient></defs><defs><linearGradient id="grad2_5" x1="0%" y1="0%" x2="66.7%" y2="100%"><stop offset="20%" stop-color="#49335c" stop-opacity="1"></stop><stop offset="80%" stop-color="#7c3e6b" stop-opacity="1"></stop></linearGradient></defs><defs><linearGradient id="grad2_6" x1="0%" y1="0%" x2="66.7%" y2="100%"><stop offset="20%" stop-color="#49335c" stop-opacity="1"></stop><stop offset="80%" stop-color="#1d2540" stop-opacity="1"></stop></linearGradient></defs><defs><linearGradient id="grad2_7" x1="0%" y1="0%" x2="66.7%" y2="100%"><stop offset="20%" stop-color="#001220" stop-opacity="1"></stop><stop offset="80%" stop-color="#1d2540" stop-opacity="1"></stop></linearGradient></defs><g transform="translate(900, 0)"><path d="M0 486.7C-68 482.3 -136.1 477.9 -184.5 445.3C-232.8 412.8 -261.6 352.1 -307.6 307.6C-353.6 263.1 -417 234.8 -449.7 186.3C-482.4 137.7 -484.6 68.9 -486.7 0L0 0Z" fill="#0c1c30"></path><path d="M0 425.9C-59.5 422 -119.1 418.1 -161.4 389.6C-203.7 361.2 -228.9 308.1 -269.1 269.1C-309.4 230.2 -364.8 205.5 -393.5 163C-422.1 120.5 -424 60.2 -425.9 0L0 0Z" fill="#312c4f"></path><path d="M0 365.1C-51 361.7 -102.1 358.4 -138.3 334C-174.6 309.6 -196.2 264.1 -230.7 230.7C-265.2 197.3 -312.7 176.1 -337.3 139.7C-361.8 103.3 -363.4 51.6 -365.1 0L0 0Z" fill="#623965"></path><path d="M0 304.2C-42.5 301.4 -85 298.7 -115.3 278.3C-145.5 258 -163.5 220 -192.2 192.2C-221 164.4 -260.6 146.8 -281.1 116.4C-301.5 86.1 -302.9 43 -304.2 0L0 0Z" fill="#96446e"></path><path d="M0 243.4C-34 241.2 -68 238.9 -92.2 222.7C-116.4 206.4 -130.8 176 -153.8 153.8C-176.8 131.6 -208.5 117.4 -224.8 93.1C-241.2 68.9 -242.3 34.4 -243.4 0L0 0Z" fill="#c55469"></path><path d="M0 182.5C-25.5 180.9 -51 179.2 -69.2 167C-87.3 154.8 -98.1 132 -115.3 115.3C-132.6 98.7 -156.4 88.1 -168.6 69.9C-180.9 51.6 -181.7 25.8 -182.5 0L0 0Z" fill="#e9705a"></path><path d="M0 121.7C-17 120.6 -34 119.5 -46.1 111.3C-58.2 103.2 -65.4 88 -76.9 76.9C-88.4 65.8 -104.2 58.7 -112.4 46.6C-120.6 34.4 -121.1 17.2 -121.7 0L0 0Z" fill="#fa9845"></path><path d="M0 60.8C-8.5 60.3 -17 59.7 -23.1 55.7C-29.1 51.6 -32.7 44 -38.4 38.4C-44.2 32.9 -52.1 29.4 -56.2 23.3C-60.3 17.2 -60.6 8.6 -60.8 0L0 0Z" fill="#fbae3c"></path></g><g transform="translate(0, 600)"><path d="M0 -486.7C42.7 -432.3 85.4 -377.8 150.4 -363.1C215.4 -348.4 302.7 -373.5 344.2 -344.2C385.6 -314.8 381.2 -231 397.3 -164.6C413.4 -98.1 450.1 -49.1 486.7 0L0 0Z" fill="#0c1c30"></path><path d="M0 -425.9C37.4 -378.2 74.7 -330.5 131.6 -317.7C188.5 -304.9 264.9 -326.8 301.2 -301.2C337.4 -275.5 333.5 -202.1 347.6 -144C361.7 -85.8 393.8 -42.9 425.9 0L0 0Z" fill="#312c4f"></path><path d="M0 -365.1C32 -324.2 64 -283.3 112.8 -272.3C161.6 -261.3 227.1 -280.2 258.1 -258.1C289.2 -236.1 285.9 -173.2 298 -123.4C310 -73.6 337.5 -36.8 365.1 0L0 0Z" fill="#623965"></path><path d="M0 -304.2C26.7 -270.2 53.4 -236.1 94 -226.9C134.6 -217.8 189.2 -233.5 215.1 -215.1C241 -196.8 238.2 -144.4 248.3 -102.8C258.4 -61.3 281.3 -30.7 304.2 0L0 0Z" fill="#96446e"></path><path d="M0 -243.4C21.3 -216.1 42.7 -188.9 75.2 -181.5C107.7 -174.2 151.4 -186.8 172.1 -172.1C192.8 -157.4 190.6 -115.5 198.6 -82.3C206.7 -49.1 225 -24.5 243.4 0L0 0Z" fill="#c55469"></path><path d="M0 -182.5C16 -162.1 32 -141.7 56.4 -136.2C80.8 -130.7 113.5 -140.1 129.1 -129.1C144.6 -118.1 142.9 -86.6 149 -61.7C155 -36.8 168.8 -18.4 182.5 0L0 0Z" fill="#e9705a"></path><path d="M0 -121.7C10.7 -108.1 21.3 -94.4 37.6 -90.8C53.9 -87.1 75.7 -93.4 86 -86C96.4 -78.7 95.3 -57.7 99.3 -41.1C103.3 -24.5 112.5 -12.3 121.7 0L0 0Z" fill="#fa9845"></path><path d="M0 -60.8C5.3 -54 10.7 -47.2 18.8 -45.4C26.9 -43.6 37.8 -46.7 43 -43C48.2 -39.4 47.6 -28.9 49.7 -20.6C51.7 -12.3 56.3 -6.1 60.8 0L0 0Z" fill="#fbae3c"></path></g></svg>